<?xml version="1.0" encoding="utf-8"?>
<!-- Generator: Adobe Illustrator 19.0.0, SVG Export Plug-In . SVG Version: 6.00 Build 0)  -->
<svg version="1.1" id="Layer_1" xmlns="http://www.w3.org/2000/svg" xmlns:xlink="http://www.w3.org/1999/xlink" x="0px" y="0px"
	 viewBox="0 0 520 500" style="enable-background:new 0 0 520 500;" xml:space="preserve">
<style type="text/css">
	.st0{opacity:0.34;}
	.st1{fill-rule:evenodd;clip-rule:evenodd;fill:#353C4B;}
	.st2{fill-rule:evenodd;clip-rule:evenodd;fill:#FFFFFF;}
	.st3{fill:none;stroke:#8C8C8C;stroke-width:16;stroke-miterlimit:10;}
</style>
<g id="XMLID_7_" class="st0">
	<polygon id="XMLID_12_" class="st1" points="268.9,253.4 234.6,253.4 234.6,287.6 268.9,287.6 268.9,253.4 	"/>
	<polygon id="XMLID_18_" class="st1" points="328.8,202 294.5,202 294.5,236.2 328.8,236.2 328.8,202 	"/>
	<circle id="XMLID_5_" class="st2" cx="346.7" cy="338.9" r="130.1"/>
	<path id="XMLID_15_" class="st1" d="M353,180.7v28.1c5.9,0.3,11.8,1,17.5,2.1v-0.4V103.9c0-13.8-11.3-25.1-25.1-25.1H328v32.5
		c0,7.5-6.1,13.5-13.5,13.5c-3.3,0-6.6,0-10,0c-7.5,0-13.5-6.1-13.5-13.5V78.7H152.9v32.5c0,7.5-6.1,13.5-13.5,13.5
		c-3.3,0-6.6,0-10,0c-7.5,0-13.5-6.1-13.5-13.5V78.7H98.5c-13.9,0-25.1,11.3-25.1,25.1V376c0,13.8,11.3,25.1,25.1,25.1
		c44.9,0,89.8,0,134.8,0c-1.9-3.4-3.6-6.9-5.2-10.4H90.9v-2.5h136c-1.4-3.4-2.7-6.9-3.9-10.5H90.9v-1.9h131.6
		c-1-3.4-1.9-6.9-2.7-10.4H94.7c-2.1,0-3.8-1.7-3.8-3.9V180.7c0-2.1,1.7-3.9,3.8-3.9h254.4C351.2,176.8,353,178.6,353,180.7
		L353,180.7z M309.4,49.2c0,0,0.1,0,0.2,0c5.3,0,9.7,4.4,9.7,9.7v46.8c0,5.3-4.3,9.7-9.7,9.7c0,0-0.1,0-0.2,0
		c-5.3,0-9.6-4.4-9.6-9.7V58.9C299.7,53.6,304,49.2,309.4,49.2L309.4,49.2z M134.3,49.2c0,0,0.1,0,0.2,0c5.3,0,9.7,4.4,9.7,9.7v46.8
		c0,5.3-4.4,9.7-9.7,9.7c0,0-0.1,0-0.2,0c-5.3,0-9.6-4.4-9.6-9.7V58.9C124.7,53.6,129,49.2,134.3,49.2L134.3,49.2z M209.3,304.7
		c-11.4,0-22.8,0-34.2,0c0,11.4,0,22.8,0,34.2c11.4,0,22.8,0,34.2,0C209.3,327.5,209.3,316.1,209.3,304.7L209.3,304.7z M149.7,304.7
		h-34.2v34.2h34.2V304.7L149.7,304.7z M209.3,253.4c-11.4,0-22.8,0-34.2,0c0,11.4,0,22.8,0,34.2c11.4,0,22.8,0,34.2,0
		C209.3,276.2,209.3,264.8,209.3,253.4L209.3,253.4z M149.7,253.4h-34.2v34.2h34.2V253.4L149.7,253.4z M209.3,202
		c-11.4,0-22.8,0-34.2,0c0,11.4,0,22.8,0,34.2c11.4,0,22.8,0,34.2,0C209.3,224.8,209.3,213.4,209.3,202L209.3,202z M268.9,202
		c-11.4,0-22.8,0-34.2,0c0,11.4,0,22.8,0,34.2c11.4,0,22.8,0,34.2,0C268.9,224.8,268.9,213.4,268.9,202L268.9,202z M348.9,323.1
		c0.3-0.8,0.9-1.4,1.6-1.7c0.7-0.3,1.5-0.4,2.3-0.1c0.8,0.3,1.4,0.9,1.7,1.6c0,0.1,0.1,0.2,0.1,0.3l43.9-43.9c1-1,2.3-1.5,3.6-1.5
		c1.3,0,2.7,0.5,3.6,1.5c1,1,1.5,2.3,1.5,3.7c0,1.3-0.5,2.6-1.5,3.6l-49.7,49.8l6.9,5.1c1.6,1.2,2.6,2.9,2.8,4.8
		c0.6,4-2.2,7.7-6.2,8.2c-1.8,0.3-3.8-0.2-5.4-1.4l-7.5-5.7l-23.3,65.9c-0.3,0.7-0.9,1.4-1.5,1.7c-1.5,0.7-3.4,0.1-4.1-1.4
		c-0.4-0.7-0.4-1.5-0.1-2.3l20.3-57.5c-0.6,0.3-1.3,0.4-1.9,0.4c-1.3,0-2.6-0.5-3.7-1.5c-1-1-1.5-2.3-1.5-3.7c0-1.3,0.5-2.6,1.5-3.6
		l4.9-4.9l-40-29.8c-1.6-1.2-2.6-2.9-2.8-4.8c-0.3-1.8,0.2-3.8,1.4-5.4c1.2-1.6,2.9-2.6,4.8-2.8c1.8-0.2,3.8,0.2,5.4,1.4l40.6,30.3
		L348.9,323.1L348.9,323.1z M411.3,273.7c-8.4-8.4-18.5-15.2-29.7-19.8c-10.7-4.4-22.5-6.9-34.9-6.9c-12.4,0-24.2,2.5-34.9,6.9
		c-11.2,4.6-21.2,11.4-29.7,19.8c-8.4,8.4-15.2,18.5-19.8,29.6c-4.4,10.8-6.9,22.5-6.9,34.9c0,12.4,2.4,24.2,6.9,34.9
		c4.6,11.2,11.4,21.2,19.8,29.6c8.4,8.4,18.5,15.2,29.7,19.8c10.7,4.4,22.5,6.9,34.9,6.9c12.3,0,24.1-2.5,34.9-6.9
		c11.2-4.6,21.2-11.4,29.7-19.8c8.4-8.4,15.2-18.5,19.8-29.6c4.4-10.8,6.9-22.6,6.9-34.9c0-12.4-2.5-24.2-6.9-34.9
		C426.5,292.2,419.7,282.2,411.3,273.7L411.3,273.7z M262.2,253.7c-21.6,21.7-35.1,51.6-35.1,84.6c0,33,13.4,62.9,35.1,84.6
		c21.6,21.6,51.5,35,84.6,35c33,0,62.9-13.4,84.6-35c21.6-21.7,35-51.6,35-84.6c0-33-13.4-62.9-35-84.6c-21.7-21.6-51.6-35-84.6-35
		C313.7,218.7,283.8,232.1,262.2,253.7z"/>
</g>
<line id="XMLID_16_" class="st3" x1="49.1" y1="36" x2="474.2" y2="461.2"/>
</svg>
