<?xml version="1.0" encoding="utf-8"?>
<!-- Generator: Adobe Illustrator 19.0.0, SVG Export Plug-In . SVG Version: 6.00 Build 0)  -->
<svg version="1.1" id="Layer_1" xmlns="http://www.w3.org/2000/svg" xmlns:xlink="http://www.w3.org/1999/xlink" x="0px" y="0px"
	 viewBox="0 0 183.4 211.7" style="enable-background:new 0 0 183.4 211.7;" xml:space="preserve">
<style type="text/css">
	.st0{clip-path:url(#XMLID_41_);}
	.st1{clip-path:url(#XMLID_42_);fill:#CCCCCC;}
	.st2{fill:#6D6D6D;}
	.st3{fill:none;stroke:#686868;stroke-width:4;stroke-miterlimit:10;}
</style>
<g id="XMLID_4_">
	<defs>
		<polygon id="XMLID_1_" points="0,52.9 91.7,0 183.4,52.9 183.4,158.8 91.7,211.7 0,158.8 		"/>
	</defs>
	<clipPath id="XMLID_41_">
		<use xlink:href="#XMLID_1_"  style="overflow:visible;"/>
	</clipPath>
	<g id="XMLID_21_" class="st0">
		<g id="XMLID_22_">
			<defs>
				<polygon id="XMLID_12_" points="0,52.9 91.7,0 183.4,52.9 183.4,158.8 91.7,211.7 0,158.8 				"/>
			</defs>
			<clipPath id="XMLID_42_">
				<use xlink:href="#XMLID_12_"  style="overflow:visible;"/>
			</clipPath>
			<polygon id="XMLID_13_" class="st1" points="0,52.9 91.7,0 183.4,52.9 183.4,158.8 91.7,211.7 0,158.8 			"/>
		</g>
	</g>
	<g id="XMLID_15_" class="st0">
		<g id="XMLID_16_">
			<path id="XMLID_10_" class="st2" d="M49.8,99c23.2-25.3,60.7-25.3,83.9,0c1.3,1.4,2.5,2.9,3.7,4.5l7.5-8.1
				c-1.2-1.5-2.4-3-3.7-4.5c-27.3-29.8-71.6-29.8-98.9,0c-1.4,1.5-2.6,3.1-3.8,4.6l7.5,8.1C47.1,102.1,48.4,100.5,49.8,99z"/>
			<path id="XMLID_9_" class="st2" d="M64.6,115.2c15-16.4,39.3-16.4,54.2,0c1.3,1.5,2.5,3,3.6,4.6l8.2-9c-1.1-1.6-2.3-3.1-3.7-4.5
				c-19.5-21.3-51.1-21.3-70.6,0c-1.4,1.5-2.6,3.1-3.8,4.7l8.2,9C62,118.4,63.2,116.8,64.6,115.2z"/>
			<path id="XMLID_8_" class="st2" d="M72,123.4c-1.4,1.5-2.6,3.1-3.6,4.9l7.7,8.4c0.8-1.9,1.9-3.7,3.3-5.2c6.8-7.4,17.8-7.4,24.6,0
				c1.4,1.5,2.4,3.2,3.2,5l7.7-8.4c-1-1.7-2.2-3.2-3.5-4.7C100.6,111.5,82.9,111.5,72,123.4z"/>
			<path id="XMLID_7_" class="st2" d="M96.2,147.8c2.8-3.1,2.8-8,0-11.1c-2.8-3-7.3-3-10.1,0c-2.8,3.1-2.8,8,0,11.1
				C88.9,150.8,93.5,150.8,96.2,147.8z"/>
		</g>
	</g>
</g>
<line id="XMLID_11_" class="st3" x1="183.4" y1="52.9" x2="0" y2="158.8"/>
</svg>
